<svg xmlns="http://www.w3.org/2000/svg" width="275" height="110" viewBox="0 0 275 110" fill="#fff" stroke="#ff9daa">
  <path d="M274.067 30.7c.218-.434-.364-.756-.512-1.125-.32.074-.763.038-1.16.074-.36-.437-.69.214-1.09-.04-.325.545-1.09.473-1.49.91-.87.18-1.597.69-2.398 1.09-.108.107-.293.04-.323-.07-.586.615-1.456.87-2.184 1.303-.292.657-1.234.223-1.633.91-.257.657-.907-.22-1.2.436-.62.437-1.053 1.092-1.89 1.162-.585.325-1.13.765-1.71 1.165-.14.07-.4.032-.47-.185-.075-1.2-.368-2.434-.255-3.703 0-.76.18-1.53 0-2.218.433-.84.034-1.82.18-2.69l.18-.29c-.542-.22-.105-.69-.105-1.017.29-.62.18-1.2.105-1.852 0-.364.44-.327.44-.69-.397-.582 0-1.417-.367-2.035.15-.51.11-1.13-.29-1.6-.507-.66-1.45-.69-2.176-.948-.264.073-.624-.22-.844.073-.255-.036-.542.074-.687-.073-.146-.22-.8.073-.51-.4.11-.727-.255-1.122-.5-1.71-.19 0-.444 0-.59-.18.074 0 .074-.073.074-.104-.218.32-.618-.077-.946-.04-.91-.143-1.783-.477-2.835-.218-.368 0-.73.508-1.088.217 0 .218-.328.183-.44.437-.4.072-.727.327-1.125.474-.436.58-1.2.252-1.746.76-.47.22-.905.544-1.343.8-.506.33-1.2.364-1.673.837-1.088.69-2.505 1.016-3.38 2.07-.36-.506-.762.147-1.196.147-.436.47-1.09.434-1.415 1.087-.366-.36-.62.293-.985.11-.58 0-.902.62-1.45.765 0 .034-.04.108.038.108-.434.36-.91 0-1.31.51-.726-.185-.584.942-1.124.87-.332.326-.874-.216-1.165.363-.84-.038-1.345.803-2.18.837-.764.18-1.09 1.087-1.965.978-.58.48-1.454.44-1.996.947-.69.22-1.307.725-2 1.014-.144.185-.51-.068-.58.223-.18.69-1.055.18-1.344.797-.765.11-1.307.69-2.036.84-.217-.397-.18-.87-.034-1.27 0-.436.255-.91.108-1.42.4-.29 0-.585.183-.98.07-.108.25-.15.25-.257-.143-.434.26-.942.107-1.488.44-.51-.43-.872-.612-1.343-.218-.22-.58-.22-.834-.402-.615-.074-1.16.075-1.525-.51-.907.04-1.817.15-2.62-.073-.653.26-1.38.402-2.03.293-.402-.034-.145-.33-.295-.58.767-.114.225-.765.402-1.165h-.107c-.438-.655.615-1.2-.07-1.78.764-1.196-1.056-1.162-1.457-2.104-.435-.252-.944.04-1.235-.434-.726-.255-1.2-.038-1.96-.038-.873-.506-1.89.038-2.84-.11-.176.293-.5.11-.83.148-.146.287-.367 0-.546.072-.546.365-1.42 0-2.068.11-.73.255-1.46.215-2.185.36-.433-.215-.76.402-1.16.185-.51.033-1.125.07-1.707.107-.292.11-.51-.29-.728.035-.618.11-1.456.183-2.106.293-.365.144-.804-.183-1.094.144-.763-.038-1.56.074-2.33.22-.903-.146-1.882.18-2.866 0-.4.47-1.017.035-1.417.362-.185.255-.324.038-.58.038-1.893.363-3.854.506-5.674 1.05-.616-.287-1.267.332-2 .296-.793.58-2.03.288-2.87.8l-.106-.11c-.69.288-1.564.11-2.142.653-1.783.075-3.346.694-4.948 1.2-.468.437-1.014 0-1.484.4-1.126.25-2.035 1.016-3.2 1.197-1.124.472-2.363.657-3.454 1.2-.215-.04-.29.362-.578.254-1.088.435-2.253.655-3.34 1.128-.913.8-2.11.872-3.128 1.453-.763-.035-1.275.473-1.962.656-.4-.4-.472.287-.872.25-.255.22-.546 0-.727-.18-.147-.217-.147-.436 0-.652-.33-.364.18-.402.29-.653-.035-.256.035-.546.144-.8.182-.325-.145-.325-.29-.544.834-.476 1.053-1.527 1.053-2.506.434-.516.695-1.203.58-1.858.365-.292.437-.693.437-1.127.26-.91.623-1.777.623-2.725.14-.067.363-.143.435-.326-.184-.365.32-.542.215-.907.367-.65.33-1.456.472-2.183.54-.502.254-1.195.22-1.85-.4 0-.257-.547-.693-.473l-.543-.36c-1.092-.073-2.145-1.13-3.27-.436-.326.072-.798.072-.87.435-.73.872-.076 2-.657 2.98.11.58-.508 1.127-.292 1.71-.255.434-.437.904-.472 1.413 0 .29-.505.44-.18.692-.326.325.11.797-.36 1.054 0 1.344-.84 2.363-.873 3.633-.654.657-.33 1.745-.764 2.508-.327.184-.07.4-.217.616-.29.8-.474 1.675-.437 2.512-.765.582-.62 1.634-1.056 2.396-.436-.035-.725.33-1.09.507-.655-.07-.982.656-1.636.58-1.235.368-2.395.986-3.594 1.388-.473-.042-.87.653-1.274.215-.257.367-.692.437-1.092.4-.143.326-.58.65-.58 1.124.29.25.328.656.73.8-.074.764.8 1.05 1.307 1.452.144.18.47.04.577.326.51-.327.622.583 1.205.402.212-.034.29.472.504.144.766.147 1.094-.76 1.853-.58.473-.653.8.217 1.237.327.22.252.145.69-.07.902.14.877-.582 1.566-.473 2.405-.143.69-.256 1.414-.4 2.143-.216.504.07 1.16-.216 1.705-.04.653-.148 1.307.25 1.817.076.727.91.944 1.275 1.494.51.068.904.578 1.38.578.544.436 1.27.07 1.89.29.323-.18.724-.36.795-.835-.36-.94.623-1.6.332-2.65-.293-.325-.18-.765-.33-1.128.185-.69.362-1.49.148-2.217.436-.18.398-.727.327-1.09.253-.146.072-.292.11-.47.396-.403 0-.91.362-1.278.218-.215.18-.65.033-.865.476-.33.185-.873.402-1.347.29-.725.543-1.526.436-2.36.29-.51 1.016-.44 1.16-1.024.73-.1 1.6-.286 1.965-1.053.4.11.437-.434.76-.292.695.402.803-.616 1.38-.578.62-.108 1.167-.108 1.745-.148.4-.4 1.055-.106 1.457-.51.508-.108.98-.22 1.376-.58.802.29.732-.763 1.525-.398.328-.582 1.095-.437 1.457-.873.653-.11.978-.875 1.707-.837.18-.037.435.04.547-.18.072-.437.542-.4.87-.474.18.364.4-.183.687-.074.48-.398 1.205-.512 1.748-.727.11-.218.326-.254.55-.328.05 0 .1 0 .112.027.034-.41.547-.25.752-.463.988.29 1.858-.512 2.836-.653.396-.404 1.092-.292 1.602-.44.468-.542 1.273-.4 1.888-.614.51-.617 1.016.328 1.564-.182.547.107.793-.725 1.31-.4-.08-.364.364-.22.47-.51l.108.074c0 .763-.91 1.02-.872 1.745-.038.365-.582.582-.33.946-.577.437-.396 1.378-1.125 1.67-.037.075.076.11.076.144.072.18.11.438-.038.584-.076.617-.257 1.234-.293 1.817-.58.184-.25.69-.403 1.092-.32.69-.25 1.527-.578 2.21.146.69-.035 1.276 0 1.932.362.285.18.942.766 1.09.178.47.47.797.867 1.087.546.18.832.91 1.526.655.47-.072.55.615 1.087.287.548 0 1.092.258 1.598.11.22.22.62.112.875.075.475-.584 1.42-.404 1.638-1.158.472-.11.578-.658 1.088-.694 0-.107 0-.22-.076-.29.66-.766 1.643-1.053 2.292-1.818.29-.693.727-1.13 1.167-1.785.14-.283.43-.542.76-.613.106-.184.58-.253.284-.58.513-.327.915-1.018 1.497-1.382.07-.47.326-.908.617-1.27-.034-.475.257-.84.33-1.308-.148-.91.582-2.183-.44-2.91-.505-.215-.943-.944-1.56-.468-.106-.403.365-.876.07-1.38.218-.296-.176-.513-.216-.8.55-.187 1.093-.076 1.635-.113.44-.4 1.206-.258 1.566-.766.62.15 1.057-.505 1.67-.14.436.4.18-.326.546-.4.545.47 1.312.035 1.854 0 .44 0 .877-.326 1.238-.218.473-.583 1.05.034 1.6-.327.58.144 1.057.033 1.636-.075.25-.148.472-.324.797-.292.33-.36.946.144 1.197-.25.372-.04.914 0 1.314.11.286-.075.505-.33.726-.515l.108.147c.617-.148 1.237.29 1.855-.077.184-.542.76-.178 1.16-.29.33.186.62.043.91.256.034.546.33 1.203-.035 1.67-.183.22.143.51-.146.692.11.51-.22.95-.22 1.49-.473.547-.4 1.276-.726 1.855-.292.947-.616 1.85-1.16 2.69.252.8-.875 1.343-.442 2.105-.8.29-.98 1.13-1.232 1.745-.474.578-.655 1.268-.836 1.922-.433.442-.363 1.057-.548 1.566.474.436.402 1.343 1.203 1.31.91.76 1.924 1.128 2.976 1.487.582-.145 1.093-.617 1.31-1.163.286-.292.473-.8.69-1.2-.107-.613.582-.977.8-1.56.22-.44.947-.62.727-1.2.035-.47.473-.618.726-.835.036-.508.51-.617.58-1.09.04-.872.874-1.128.84-2.002.505-.36.9-1.27 1.813-.976.036-.075.105-.15.22-.11.507.07.507.617.472 1.086-.18.04.035.48-.29.37.033.54-.252.943-.222 1.45-.074.217-.18.436-.252.62-.363.977-.91 2.218-1.015 3.38-.145.726-.113 1.6.142 2.36.51.4.475 1.273 1.2 1.49.218.69 1.164.253 1.45.873.624.182 1.31-.037 1.748-.475.87.037.906-1.09 1.565-1.304.07-.8.978-.73 1.344-1.31-.035-.365.363-.474.58-.657.58.074.693-.618 1.09-.833.327-.253 1.02-.33.948-.875.654-.182-.074-.76.4-.945.762.034 1.523-.36 1.89-1.016.145 0 .324-.038.47.034.436-.22.91-.29 1.34-.438.152-.4.73-.436 1.022-.76.254-.218.798-.18.766-.623.25-.177.508-.325.832-.25.145-.4.762-.075.8-.617.834-.183 1.49-.874 2.396-.986.873-.07 1.494-.975 2.368-.975-.15-.658.616-.294.87-.586-.04-.215-.04-.433.147-.546.833-.29 1.67-.47 2.394-.944.07-.727.948.042 1.236-.47.51.07.474-.4.945-.4.327-.4.91-.22 1.2-.654.62.106.983-.546 1.306-.98l-.103-.108c.22-.11.294-.438.545-.364-.03.364-.473.58-.325.976-.584.552-.732 1.418-1.092 2.15-.146.25-.182.762-.542.686.143.293 0 .582-.11.837-.145.69-.4 1.418-.58 2.144-.182.114.107.29-.107.4.106.655-.477.945-.62 1.53.217.54-.367 1.194-.15 1.85.217.552.73.835.77 1.456.177.182.36.583.69.504.285.55.98.364 1.267.84.694.18 1.313.725 2.074.58v.07l.326.037c.292.29.73.364 1.13.257.505-.327 1.124 0 1.632-.435.438-.15.505-.618.766-.947 1.086-.257 1.086-1.53 1.964-2.04.796-1.088 1.377-2.36 2.287-3.38-.074-.612.685-.833.94-1.27-.07-.55.546-.84.908-1.02.255.73.11 1.49.145 2.255-.107.725.218 1.378.034 2.145.362.183-.142.617.26.727-.148.8.254 1.56.36 2.36.288.476.288 1.056.51 1.528.62.438.653 1.31 1.378 1.673-.178.798.874.47 1.167 1.017.547 0 .91.542 1.35.727.54.37 1.084-.362 1.63 0 .404-.073.948.33 1.2-.183-.073-.577.582-.25.8-.654.18-.613.836-.83 1.38-1.12.034-.656.87-.397.906-1.017.222-.224.33-.51.655-.51.55-.766 1.49-.475 2.075-1.164.25-.184.65-.22.834-.476.834-.795 2.03-.907 2.798-1.92.142-.113.43.032.43-.22.698-.037.62-.726 1.172-.98.142-.11.357 0 .433.108.11 0 .11-.18.144-.293.547-.215 1.234-.4 1.455-1.02.252-.142.325.295.503.187.04-.22-.033-.364-.07-.547.07-.077.11-.18.217-.145.8-.108.073-.91.295-1.34.322-.08.58.106.872 0 .064-.766-.767.07-.805-.624zM182.57 27c-.144-.15-.072.107-.217.07.47.69-.474 1.09-.255 1.746-.616.508-.32 1.488-1.163 1.816-.51.032-.434.653-.8.867-.254.764-1.16 1.2-1.45 2-.076.87-.983.94-1.312 1.63-.33.185-.76.44-1.235.294-.504-.548-.217-1.38.04-1.926.217-.51.436-1.09.504-1.56.362-.44.22-1.094.62-1.493.286-.618.653-1.2 1.053-1.743.51-.617.29-1.964 1.382-1.89.438-.294.872-.147 1.345-.325.148-.037.257.03.29.14v.11c.29-.18.766-.144 1.126.074.037.07.11.11.072.185zm66.245-3.272c0 .508-.144 1.162-.074 1.708-.106 0-.183.143-.29.22.29.54-.29.978-.29 1.557-.22.366-.107.84-.437 1.128-.18.804-.832 1.46-1.16 2.186-.763.87-1.195 1.887-2.038 2.578-.253 0-.253.29-.36.472-.4.366-.767.73-1.203 1.02-.54-.15-.87-.18-1.122-.767.47-.4.29-1.09.835-1.527.072-.832.767-1.415 1.056-2.174.36-.696 1.05-1.24 1.128-2.073.25-.072.51-.364.65-.62-.14-.254.222-.147.222-.362.61-.69.943-1.492 1.56-2.107.397-.293.397-.876.91-1.056.474-.107.723-1.163 1.197-.4-.185.146-.33.29-.58.22zm-122.747 17.26c-.22-.55.07-1.126-.072-1.708-.472-.51.143-1.2-.148-1.673-.11-.616-.288-1.237-.51-1.817-.287-.215-.58-.506-.943-.545-.542-.616-1.125.04-1.817-.217-.942-.472-1.78.107-2.76.257-.075.835-.62 1.417-1.163 1.96-.256.76-.8 1.052-1.237 1.78-.144.726-.945.943-1.017 1.708-.36.582-1.015.763-1.305 1.38-.292.544-.474 1.125-.944 1.524-.62.514-1.165 1.24-1.417 1.962-.437.51-.835.98-1.458 1.273-.072-.804-.25-1.928.186-2.725.8-.62-.257-1.346.4-2.04.436-.435.76-.98.945-1.597.69-1.202.398-2.47.107-3.744.188-.183.188-.438.146-.652.51-.33-.034-.8.147-1.203 0-.69-.726-1.23-1.306-1.45-.51-.145-.946-.547-1.565-.436-.255-.362-.655-.398-1.017-.22-.257-.362-.693-.11-1.055-.18-.396.214-.873.288-.98.836-.04 1.45-.253 2.868-.654 4.18-.51 1.05-1.344 0-2.108.214-.69.22-1.49.04-2.18.437-.51.258-1.236.04-1.744.328-.693.11-1.128.583-1.78.765-.546.908-1.456.435-2 1.31-.218.908-1.42.47-1.78 1.383-.4.253-.513.576-.947.76-.035.652-.835.617-1.16 1.015-.44.328-.763.728-1.126 1.09-.438-.032-.367.55-.764.55-.33.255-.366.757-.767.87-.435.216-.794.945-1.27.62-.04-1.02-.254-2.11-.072-3.13-.25-.764.51-2.25-.76-2.322-.292-.143.035-.33-.076-.546-.216-.364-.69-.327-1.017-.51-.327-.727-1.16-.544-1.672-1.014-.58-.368.29-.693.223-1.127.435-.51.47-1.385.106-2-.364 0-.44-.398-.543-.615-.657-.186-1.202-.474-1.71-.91-.257 0-.473-.073-.69-.216-.147-.403-.55-.15-.838-.367-.76-.327-1.483.29-2.177-.036-.36.474-.907.074-1.344.293-.215-.435-.58-.256-.982-.22-.328.33-.615.18-1.05.15-1.166.504-2.508.18-3.638.797-1.233.185-2.29.8-3.56.878-.326.684-1.126.1-1.633.464-.403.69-1.274.076-1.75.69-.652-.033-1.126.4-1.742.4-.62.653-1.528.76-2.36.727-.73.91-2.072.144-2.762 1.2-.474-.325-.51.29-.91.363-.363-.143-.8.11-1.09.29-.143.04-.403.073-.51-.07-.437.215-.98.253-1.27.65-.182.15-.29-.033-.366-.142-.214.072-.323.22-.472.434-.837-.177-1.16.8-1.995.765-.294.543-.947.363-1.35.687-.032.258-.253.442-.544.364-.397.692-1.305.254-1.667.91-.33.145-.66.145-.986 0-.477.507-1.417.4-1.854 1.055-.072-.074-.146-.074-.214-.145-.29.253-.95.183-.802.765-.4.104-.764.104-1.236.178-.512.15-.84.91-1.418.73-.223.51-.728.294-1.09.4-.614.98-1.672 1.2-2.542 1.706-.178.036-.58-.11-.723.11-.656-.252-.98.47-1.532.47-.032.435-.396.073-.58.365-.142.035-.255-.037-.4-.07-.178.577-.904.177-1.015.8-.326-.107-.655.652-.763.07.035-.22.223-.47.472-.396.29-.474.98-.44 1.092-1.02.504 0 .356-.653.54-.98.146-.215.62-.292.434-.655.253.037.546-.108.69-.326-.324-1.276 1.78-1.38 1.673-2.474.764-.145.543-1.018.978-1.453.803 0 .584-.87.875-1.344.328-.215.218-.725.655-.8-.106-.615.907-.652.652-1.342.254-.51.325-1.2.988-1.49-.225-.76.467-1.27.65-1.964.726-.58.505-1.633.98-2.323.11-.22.18-.617-.04-.8-.106-.692.693-1.09.475-1.893.437-.977-.4-1.85-.11-2.724.835-.287-.144-1.09-.073-1.635.04-.11.183-.176.292-.215-.146-.946-.11-1.926-.546-2.834-.583-.944-.948-2.032-1.197-3.123-.29-.255-.547-.653-.872-.727 0-.18.214-.33.252-.438-.364-.25.073-.652-.397-.87-.217-.838-.947-1.38-1.31-2.15-.29-.833-1.63-.684-1.38-1.668-.87-.908-1.818-2.07-2.903-2.69-.437 0-.584-.505-1.02-.505-.112-.984-1.196-.66-1.67-1.275-.328-.436-.947-.436-1.347-.8-.76.04-1.088-1.09-1.922-.726-.294-.29-.836-.15-1.054-.58-.763.43-1.164-.476-1.928-.33-.4-.293-1.02-.186-1.523-.293-.15-.213-.4-.397-.69-.253-.735-.363-1.492 0-2.22-.18-.436.18-.982.07-1.343-.105-.074-.184 0-.44.178-.584.438-.185.328-.73.765-.982.185-.763.837-1.197 1.053-1.89.44-.474-.11-.945-.18-1.38-.22-.294-.51-.656-.84-.618-.177-.074-.36-.258-.434-.436-.794-.58-1.67-.87-2.65-.98-.18.11-.287.29-.506.328-.508.726-1.452 1.27-1.525 2.213-.725 1.204-1.453 2.47-1.704 3.93-.585.65-.474 1.6-.802 2.36-.51.766-.4 1.78-.907 2.58-.072 1.018-.654 1.817-1.165 2.65-.106.874-.686 1.53-.872 2.36-.292.914-.69 1.787-.833 2.765-.656.51.033 1.492-.723 1.924-.15 1.495-.84 2.764-.766 4.36-.62.69-.543 1.71-.728 2.54 0 .15-.367.297-.105.48-.11.58-.293 1.16-.293 1.74-.545.545-.18 1.27-.47 1.927-.58.363.33.578.035.982-.69.22-.256 1.087-.723 1.49.14.654-.552 1.232 0 1.816.14.325-.258.325-.402.504-.15.183.035.366.035.544-.327.476-.436 1.127-.436 1.785-.15.43-.29.91 0 1.31-.657.326-.182 1.19-.583 1.595-.037.548-.218.946-.25 1.563-.115.76-.768 1.45-.404 2.25-.4.76-.69 1.74-.44 2.615-.575.51-.067 1.488-.434 2.106-.037.147-.258.293-.143.44.216.33-.223.616-.33.91 0 .87-.327 1.706-.22 2.58-.292.216-.142.51-.107.83-.583.8-.406 1.963-.51 2.91.073.727-.51 1.273-.146 1.96-.11.113-.22.185-.33.257.11.653-.254 1.235-.106 1.892-.036 1.266-.728 2.537-.363 3.882-.4 1.058.035 2.183-.222 3.307l-.61.693C.96 70.6.453 71.143.09 71.69c-.214.4.036.837.22 1.16.617.8 1.166 1.71 2.183 1.857.432.287.904.578 1.3.763.333-.11.585.106.84-.04.037-.543.763-.146 1.018-.505.58-.29 1.275.068 1.78-.474.327-.545.694-1.16.838-1.816.44-.43 1.056-.832 1.562-1.233 0-.69.87-.294.87-.982.95-.544 1.71-1.42 2.69-1.96.11-.617.91-.476 1.054-.984.69-.29 1.09-.87 1.858-1.014.285-.624.865-.765 1.415-.946.323-.15.546-.33.578-.73.51-.433 1.382-.433 1.71-1.16.582-.477 1.6-.222 1.887-1.092.803.183.912-.87 1.675-.8.506-.435.98-.69 1.487-1.164.584.076 1.052-.254 1.49-.69.473-.18.765-.582 1.345-.618.544-.038.47-.65.94-.8.437-.073.73-.51 1.238-.546.215-.032.257-.544.545-.365.328-.067.73-.03.798-.435.29-.07.66-.142.908-.435.29-.654 1.166-.293 1.566-.762.65-.11 1.2-.473 1.744-.764.617-.327 1.197-.693 1.85-.984.04-.177.294-.43.475-.51.4.08.436-.395.726-.325.363-.11.982.036 1.2-.4.797.22.872-.725 1.635-.58.144-.328.65-.18.728-.582.144-.07.252.072.362.072.29-.072.51-.29.654-.51.29.11.434-.325.65-.07.62-.548 1.493-.47 2.073-1.09.4-.29 1.018-.22 1.38-.727.438.07.73-.472 1.2-.472.584.072.62-.944 1.308-.474.218-.036.33-.217.33-.435.764.035 1.088-.802 1.888-.62.29-.072.763-.11.832-.544.803.22 1.13-.544 1.857-.508.545-.69 1.596-.434 2.07-1.163l.07.11.185-.256c.363.18.47-.363.838-.147.323-.148.795-.185 1.014-.47.252-.077.507-.4.762-.22.254-.366.726-.294.91-.69.505.51.795-.405 1.344-.04.4 0 .686-.292 1.052-.22.506-.687 1.343-.576 2-.976.796-.33 1.67-.222 2.432-.44.468-.435 1.164-.4 1.707-.473.366-.29.657-.403 1.093-.47.148-.687 1.015-.29 1.452-.436.256.502-.33.69-.58 1.09-.766.476-1.42 1.235-1.928 1.998-.723.436-.907 1.127-1.416 1.707-.18.656-.797 1.09-1.054 1.706-.432 1.02-1.053 1.964-1.302 3.058-.294.648-.585 1.375-.474 2.066-.51.877-.365 1.923-.327 2.91.216.4.034.98.435 1.31.255.647.508 1.413 1.168 1.775.215.514.904.8 1.3 1.31 1.126.256 1.928 1.523 3.202 1.308 0-.104.034-.144.07-.215.363-.22.765.11 1.13.253.397-.51 1.052-.105 1.56-.36.293-.11.327-.403.508-.652l.4.145c.252.072.185-.22.328-.292.436 0 .69-.51 1.124-.583.146-.324.44-.324.618-.617.44 0 .216-.8.802-.62l1.31-1.232c.29-.26.36-.655.76-.8.113-.728 1.236-.804 1.197-1.714.26-.36.547-.905 1.055-.975.44-.73 1.273-1.346 1.456-2.18.106-.188.47-.15.435-.44.145-.437.947-.73.546-1.16.038-.11.185-.33.364-.258 1.095 1.345 2.545 2.036 3.782 3.088.688.075 1.417.62 2.142.4.292.437.837.22 1.236.143.256-.542.984-.323 1.38-.688.11-.218.217-.437.473-.4 1.02-.726 1.634-1.67 2.54-2.36.114-.764 1.093-.8 1.31-1.346.585-.25.874-.65 1.2-1.197.328-.15.546-.624.872-.513.906-1.27 2.507-1.78 3.852-2.395-.22-1.09.943-.182 1.236-.836.216-.11.252.213.435.213l.29-.288c.147-.038.22.034.29.11-.035 1.776.075 3.74.292 5.52.29.36.146.907.29 1.347.436.356.218 1.013.693 1.374.07.765.76 1.13 1.307 1.567 1.052.037 1.562 1.306 2.725 1.236.07.394.508.107.727.252.436-.44 1.123-.184 1.56-.622.473-.724 1.562-.647 1.78-1.593.548 0 .873-.582 1.236-.873.147-.214-.144-.475.184-.656.436.042.287-.582.726-.582.146-.367.47-.688.654-.98 0-.654.798-1.015 1.235-1.455.545-.25.29-1.16.906-1.34.038.07.15.11.15.182-.297.363-.04.874.068 1.31-.435 1.598-.396 3.486-.506 5.085-.256.51-.07 1.2-.328 1.707.072.62-.29 1.13-.182 1.74-.252.624-.034 1.28-.287 1.897-.11.4.07.8-.18 1.16.144.438-.258.76-.11 1.274-.51.363-.075.94-.437 1.34.325.732-.327 1.46-.074 2.182-.362.332.035.73-.146 1.09.22.292-.18.58-.216.874-.217.51-.147 1.09-.398 1.562-.22.98-.078 1.962-.62 2.8l.292.688c-.075.18-.258.29-.258.47-.18.765-.688 1.486-.435 2.36-.434.44 0 1.056-.397 1.492-.11.327 0 .617 0 .914-.943.43.074 1.41-.69 1.96.29.254-.182.47.11.688-.8.433-.038 1.38-.73 1.853.152 1.055-.508 1.997-.578 3.088-.547.657-.365 1.634-.837 2.33.036.144.107.323.33.25.835.692-.546.11-.546.838-.182.252-.182.47 0 .73-.62.4-.654 1.124-.764 1.774-.363 1.016-.765 1.996-1.163 3.016-.615.692 0 1.926-.908 2.402-.145.725-.617 1.34-.688 2.104-.584.4-.513 1.163-.836 1.67-.11.29-.472.616-.184.874-.22.398-.652.688-.616 1.2-.472.47-.62 1.194-.763 1.85-.837.436-.182 1.42-.872 1.964-.724.144-.544 1.02-1.017 1.453-.033.365-.58 1.053.145 1.126-.07.075-.106.075-.177.108 0 .072-.04.218.034.29.4.294.4 1.168 1.125.91.075.547.658.22.985.33.323.398.72-.072 1.16.105.183.075.11.253.22.362.327.078.434-.287.65-.432-.106-.506.364-.654.437-1.053.255-.255.507-.585.874-.8-.144-.582.584-.84.4-1.456.655-.4.327-1.38 1.163-1.452.075-.4-.69-.833-.033-1.126.433-.326-.328-.69.143-.982.255-.215.47.076.728.114.4-.144.108-.652.254-.91.507-.36.034-.946.363-1.38.8 0 .328-1.02.764-1.342-.257-.693.835-.512.652-1.167-.508-.43.472-.546.146-1.05.58-.076.036-.767.58-.835.473-.26 0-.728-.11-1.06.11-.36.62-.146.766-.506.073-.107 0-.22-.11-.29-.253-.222-.253.145-.51.108-.18-.075-.073-.255-.107-.402.107-.36.507-.18.727-.324.29-.402.472-.764.472-1.308.4-.326-.113-.943.436-1.095.107-.324.325-.575.214-1.015.073-.143.22-.143.33-.07l.07-.22c-.07-.472-.616-.326-.837-.62.11-.143.255-.25.47-.214.585.035 0-.58.585-.58-.438-.87.832-1.09.506-1.96.255-.223-.145-.657.29-.803-.472-.437.365-.323.365-.652-.07-.215.074-.8-.364-.835-.106-.477.51-.367.765-.58 0-.11.036-.26-.036-.33.29-.686-.51-.544-.656-1.054.29-.437.546-.76 1.126-.76.18-.22-.215-.295-.215-.478-.146-.288.288-.18.395-.326-.068-.327.366-.655-.068-.87-.143-.29.11-.44.325-.548-.18-.36-.58 0-.798-.29-.075-.254.146-.51.18-.76.18 0 .18.217.292.29.182.037.217-.112.325-.182.657 0 0-.763.545-1.018.07-.257.29-.62 0-.835-.4 0-.837-.183-1.088-.437.285-.47.872-.18 1.235-.217.106-.187.252-.366.143-.583.363-.33-.438-.29-.107-.65.798-.222.145-.873.58-1.24-.256-.04-.51-.253-.617-.472.106-.51.506-.18.795-.217.478-.69-.76-.653-.582-1.235.187-.182.475-.182.693-.04.254-.284.4-.685.254-1.087.22-.436.113-.835.29-1.307.145-.364 0-.768.293-1.02-.036-.367.07-.91-.255-1.194.362-.51.727-1.207.616-1.894.62-.58 0-1.384.513-2.034-.548-.512.58-.547.252-1.054-.11-.91.583-1.67.256-2.62.288-.073.034-.473.18-.692-.436-.394.33-.646-.18-1.015.108-.112.25-.182.365-.255.036-.18-.036-.323-.183-.434-.035-.072-.07-.253.037-.292.763 0 .183-.98.543-1.415-.395-.62.477-.945 0-1.525.513-.546-.107-1.31.33-1.785 0-.724.218-1.418.183-2.107.286-.438-.293-1.018.216-1.418-.038-.797-.108-1.743.22-2.542-.185-.29.108-.8-.106-1.165.03-.29.25-.652.107-.872-.106-.29-.15-.578.143-.8-.185-.458-.038-1.04.035-1.51zM32.644 42.99c-.328.284-.504.76-.943.832-.29.255-.07.8-.504.87-.513.473-.62 1.276-1.27 1.53-.62.907-1.49 1.67-2.073 2.543-.796.143-.18 1.233-1.092 1.09-.285.105-.285.397-.392.613-.328.402-1.093.333-1.128.946-.55.946-1.528 1.09-2.11 1.962-.51.15-.77.688-1.166 1.018-.51.438-.98.91-1.596 1.24-.183.724-1.058.503-1.31 1.23-.47.295-.834.73-1.343.946-.18.435-.728.22-.838.724-.506.147-.36.767-.94.767-.654.18-.803 1.02-1.493 1.055-.145 1.167-1.673.185-1.71 1.347-.36.33-.91.546-1.345.803-.22.438-.8.36-1.05.765-.26.1-.368-.15-.51-.327.034-.437-.15-1.17.472-1.273.142-.364-.657-.875 0-1.056.33-.507.616-1.272.33-1.96.54-.256-.188-.762.25-1.126-.076-.255.183-.583-.217-.62.034-.324-.185-.943.324-1.09.255-.216.255-.726.18-1.088-.328-.33.725-1.058-.218-1.125.036-.256.475-.22.587-.507 0-.584-.588-.98-.37-1.6-.106-.727.545-.218.652-.798.186-.765-.543-1.31-.215-1.966.074-1.015.288-1.963.4-2.903.324-.51.11-1.057.366-1.6-.255-1.162.83-2.072.215-3.234.22-.326.4-.548.362-.98.18-.4.037-.91.328-1.236l.25-1.275c.585.04.294-.653.44-.977-.364-.185-.25-.8-.216-1.09.254-.254.07-.62 0-.874l-.035-.073c.686-.326.104-1.092.612-1.415l.074.07c.217-.107.14-.326.217-.506-.144-.04-.325-.11-.29-.258-.074-.364.51-.617.11-.94.103 0 .327-.077.327-.26-.036-.07.037-.07.072-.106.074.037.04.148.143.22.148-.44.22-1.02.076-1.42-.037-.29.614-.436.25-.836-.106-.146-.106-.435 0-.578.33-.072.074-.44.187-.583.758-.656-.218-1.56.357-2.326-.07-.215-.106-.396.042-.58.212-.074.436.146.616-.074-.11-.363.214-.763-.146-1.018.182-.725.11-1.56.583-2.11.07-.613-.11-1.34.47-1.778.033-.402-.18-1.09.437-1.233.475 0-.034-.364.074-.584.255-.218.107-.69.438-.762.29-.653.51-1.345.833-1.998.263-.8 1.06-1.235 1.346-1.998.33-.402.84-.364 1.24-.62.4.04.616-.438 1.052-.4.217-.434.618-.216.873-.69.253.33.4-.253.688.04.474-.328 1.126.145 1.533-.293.76.217 1.56.36 2.36.542.543-.725 1.127.15 1.67.22.22.507.617 0 .95.107.36.8 1.234.33 1.633 1.092.943-.22 1.344.875 2.104 1.164.617.36.836 1.235 1.565 1.342.213.505.362 1.127.872 1.417.364.98 1.162 1.814 1.27 2.905.765 1.6.837 3.45 1.203 5.23-.22.803.47 1.82-.074 2.653-.036 1.562-.585 2.87-.875 4.29-.36.473-.216 1.198-.727 1.602-.324.542-.29 1.195-.76 1.665.18.582-.51.655-.51 1.164-.397.8-1.164 1.417-1.24 2.33-.723.54-.904 1.56-1.632 2.14-.078.763-1.096.907-1.096 1.67zm50.183-2.294c-.183.108-.325.22-.435.435.326.654-.692.696-.473 1.31-.405.185-.29.695-.76.695-.334.617-.875.982-.99 1.67-.507.328-.69.87-.98 1.344v.18c-.504.47-.76 1.016-1.31 1.454 0 .508-.613.615-.724 1.016-.18.793-1.345.98-1.196 1.815-.435.107-.872.474-.982.875-.83.62-1.27 1.528-2.072 2.108-.36.4-.763.76-1.16 1.054-.254.87-1.273.653-1.708 1.378-.073.072-.18.072-.254 0-.115-.107-.146-.325-.364-.325.182-.22.544-.33.8-.29-.077-.726.437-1.24.29-2 .07-.256.437-.144.437-.437-.217-.69.583-1.16.618-1.817.324-.435.324-1.013.763-1.302 0-.44.434-.695.654-1.09.873-1.312 2.07-2.328 3.088-3.634.437-.293.836-.622 1.273-.98.328.032.29-.33.472-.514.435-.144.728-.726 1.198-.76.288-.544.944-.544 1.16-1.096.55.113.62-.502.8-.795.872.142 1.453-.62 1.963-1.127.183.25-.073.542-.11.833z"/>
</svg>