<?xml version="1.0" encoding="UTF-8" standalone="no"?>
<svg width="275px" height="110px" viewBox="0 0 275 110" version="1.1" xmlns="http://www.w3.org/2000/svg" xmlns:xlink="http://www.w3.org/1999/xlink" xmlns:sketch="http://www.bohemiancoding.com/sketch/ns">
    <!-- Generator: Sketch 3.1.1 (8761) - http://www.bohemiancoding.com/sketch -->
    <title>daytona_logo_vit (1)</title>
    <desc>Created with Sketch.</desc>
    <defs></defs>
    <g id="Page-1" stroke="none" stroke-width="1" fill="none" fill-rule="evenodd" sketch:type="MSPage">
        <g id="daytona_logo_vit-(1)" sketch:type="MSLayerGroup" fill="#FFFFFF">
            <path d="M248.811,24.13 C248.811,24.638 248.667,25.292 248.736,25.838 C248.627,25.838 248.55,25.981 248.446,26.056 C248.736,26.598 248.153,27.035 248.153,27.614 C247.936,27.981 248.046,28.455 247.717,28.742 C247.537,29.543 246.884,30.198 246.556,30.925 C245.793,31.796 245.36,32.812 244.518,33.503 C244.265,33.503 244.265,33.792 244.157,33.975 C243.757,34.341 243.391,34.704 242.954,34.994 C242.416,34.845 242.084,34.813 241.832,34.228 C242.303,33.829 242.123,33.136 242.667,32.702 C242.739,31.869 243.434,31.286 243.723,30.527 C244.082,29.832 244.774,29.286 244.851,28.455 C245.102,28.383 245.36,28.09 245.502,27.834 C245.36,27.58 245.723,27.688 245.723,27.473 C246.335,26.783 246.667,25.981 247.282,25.365 C247.681,25.072 247.681,24.489 248.191,24.31 C248.667,24.202 248.916,23.147 249.391,23.911 C249.207,24.057 249.062,24.202 248.811,24.13 L248.811,24.13 Z M182.565,27.401 C182.422,27.252 182.494,27.509 182.348,27.473 C182.818,28.162 181.874,28.563 182.093,29.218 C181.478,29.726 181.772,30.706 180.93,31.034 C180.42,31.067 180.496,31.688 180.129,31.902 C179.876,32.668 178.97,33.102 178.679,33.903 C178.604,34.776 177.697,34.845 177.368,35.536 C177.04,35.72 176.609,35.977 176.133,35.829 C175.629,35.281 175.916,34.449 176.173,33.903 C176.39,33.395 176.609,32.812 176.677,32.343 C177.04,31.902 176.898,31.25 177.296,30.851 C177.584,30.234 177.95,29.652 178.35,29.108 C178.86,28.491 178.641,27.144 179.732,27.218 C180.171,26.923 180.605,27.07 181.077,26.893 C181.225,26.857 181.334,26.923 181.366,27.035 L181.366,27.144 C181.659,26.965 182.133,27.001 182.494,27.218 C182.531,27.288 182.603,27.325 182.565,27.401 L182.565,27.401 Z M274.062,31.103 C274.28,30.668 273.698,30.345 273.551,29.977 C273.23,30.05 272.788,30.015 272.392,30.05 C272.029,29.616 271.7,30.268 271.3,30.015 C270.976,30.559 270.21,30.487 269.81,30.925 C268.939,31.103 268.214,31.616 267.412,32.013 C267.304,32.12 267.119,32.05 267.089,31.941 C266.503,32.558 265.633,32.812 264.905,33.246 C264.613,33.903 263.671,33.469 263.272,34.156 C263.016,34.813 262.365,33.937 262.071,34.592 C261.453,35.031 261.02,35.686 260.183,35.756 C259.598,36.08 259.054,36.521 258.474,36.921 C258.332,36.99 258.073,36.953 258.002,36.735 C257.928,35.536 257.635,34.301 257.748,33.032 C257.748,32.272 257.928,31.505 257.748,30.816 C258.181,29.977 257.782,28.997 257.928,28.126 L258.107,27.834 C257.565,27.614 258.002,27.144 258.002,26.818 C258.292,26.198 258.181,25.618 258.107,24.965 C258.107,24.601 258.547,24.638 258.547,24.274 C258.15,23.692 258.547,22.858 258.181,22.24 C258.332,21.73 258.292,21.111 257.892,20.64 C257.384,19.983 256.439,19.953 255.715,19.694 C255.454,19.768 255.094,19.475 254.874,19.768 C254.619,19.732 254.332,19.841 254.187,19.694 C254.041,19.475 253.388,19.768 253.675,19.294 C253.788,18.567 253.422,18.172 253.175,17.585 C252.987,17.585 252.732,17.585 252.585,17.406 C252.661,17.406 252.661,17.332 252.661,17.3 C252.443,17.621 252.043,17.224 251.715,17.26 C250.805,17.118 249.934,16.784 248.882,17.043 C248.514,17.043 248.153,17.551 247.794,17.26 C247.794,17.479 247.466,17.444 247.354,17.698 C246.954,17.77 246.627,18.025 246.229,18.172 C245.793,18.75 245.027,18.423 244.482,18.931 C244.012,19.152 243.577,19.475 243.14,19.732 C242.633,20.061 241.94,20.095 241.466,20.569 C240.379,21.258 238.962,21.585 238.088,22.638 C237.729,22.132 237.325,22.786 236.891,22.786 C236.454,23.256 235.801,23.22 235.475,23.873 C235.109,23.513 234.856,24.166 234.49,23.983 C233.91,23.983 233.588,24.601 233.04,24.748 C233.04,24.782 233,24.856 233.078,24.856 C232.644,25.216 232.169,24.856 231.769,25.365 C231.042,25.18 231.184,26.308 230.644,26.234 C230.312,26.561 229.77,26.019 229.479,26.598 C228.64,26.561 228.134,27.401 227.297,27.435 C226.534,27.614 226.207,28.523 225.333,28.413 C224.753,28.891 223.879,28.853 223.337,29.36 C222.646,29.58 222.03,30.085 221.335,30.374 C221.193,30.559 220.827,30.305 220.758,30.596 C220.576,31.286 219.702,30.776 219.413,31.393 C218.648,31.505 218.106,32.085 217.377,32.232 C217.158,31.835 217.197,31.361 217.341,30.961 C217.341,30.527 217.596,30.05 217.449,29.543 C217.85,29.254 217.449,28.957 217.632,28.563 C217.702,28.455 217.883,28.413 217.883,28.306 C217.739,27.871 218.142,27.363 217.989,26.818 C218.429,26.308 217.561,25.945 217.377,25.475 C217.158,25.254 216.797,25.254 216.542,25.072 C215.927,24.997 215.381,25.146 215.017,24.563 C214.108,24.601 213.198,24.712 212.396,24.489 C211.742,24.748 211.015,24.891 210.365,24.782 C209.963,24.748 210.22,24.453 210.07,24.202 C210.837,24.089 210.295,23.437 210.473,23.037 L210.365,23.037 C209.927,22.382 210.98,21.838 210.295,21.258 C211.059,20.061 209.239,20.095 208.838,19.152 C208.403,18.898 207.894,19.188 207.603,18.716 C206.875,18.461 206.403,18.678 205.643,18.678 C204.768,18.172 203.752,18.716 202.804,18.567 C202.625,18.861 202.3,18.678 201.971,18.716 C201.826,19.003 201.604,18.716 201.425,18.788 C200.879,19.152 200.005,18.788 199.357,18.898 C198.628,19.152 197.897,19.113 197.172,19.258 C196.738,19.043 196.413,19.66 196.013,19.443 C195.503,19.475 194.886,19.513 194.304,19.549 C194.013,19.66 193.794,19.258 193.577,19.585 C192.959,19.694 192.121,19.768 191.471,19.878 C191.107,20.021 190.668,19.694 190.378,20.021 C189.615,19.983 188.818,20.095 188.049,20.242 C187.145,20.095 186.167,20.42 185.183,20.242 C184.782,20.712 184.167,20.276 183.767,20.603 C183.581,20.858 183.441,20.64 183.185,20.64 C181.292,21.003 179.332,21.147 177.512,21.691 C176.898,21.403 176.247,22.023 175.514,21.987 C174.721,22.567 173.482,22.276 172.644,22.786 L172.538,22.676 C171.847,22.965 170.974,22.786 170.396,23.33 C168.613,23.403 167.05,24.023 165.448,24.528 C164.98,24.965 164.434,24.528 163.964,24.929 C162.836,25.18 161.928,25.945 160.763,26.126 C159.64,26.598 158.4,26.783 157.309,27.325 C157.094,27.288 157.02,27.688 156.731,27.58 C155.644,28.015 154.479,28.235 153.393,28.708 C152.479,29.508 151.281,29.58 150.263,30.16 C149.5,30.124 148.989,30.632 148.301,30.816 C147.901,30.417 147.829,31.103 147.429,31.067 C147.174,31.286 146.883,31.067 146.702,30.885 C146.556,30.668 146.556,30.449 146.702,30.234 C146.375,29.869 146.883,29.832 146.993,29.58 C146.958,29.323 147.028,29.033 147.138,28.781 C147.319,28.455 146.993,28.455 146.847,28.235 C147.682,27.76 147.901,26.708 147.901,25.73 C148.335,25.216 148.596,24.528 148.48,23.873 C148.845,23.581 148.917,23.18 148.917,22.746 C149.176,21.838 149.54,20.969 149.54,20.021 C149.68,19.953 149.903,19.878 149.975,19.694 C149.791,19.33 150.295,19.152 150.189,18.788 C150.556,18.136 150.518,17.332 150.662,16.605 C151.204,16.103 150.917,15.409 150.881,14.754 C150.482,14.754 150.626,14.208 150.189,14.282 L149.646,13.918 C148.554,13.846 147.5,12.788 146.375,13.483 C146.05,13.555 145.578,13.555 145.506,13.918 C144.777,14.79 145.431,15.917 144.849,16.898 C144.958,17.479 144.341,18.025 144.557,18.607 C144.301,19.043 144.12,19.513 144.084,20.021 C144.084,20.31 143.578,20.459 143.905,20.712 C143.578,21.037 144.013,21.509 143.542,21.766 C143.542,23.11 142.704,24.13 142.67,25.4 C142.015,26.056 142.341,27.144 141.905,27.907 C141.578,28.09 141.835,28.306 141.688,28.523 C141.397,29.323 141.216,30.198 141.253,31.034 C140.489,31.616 140.634,32.668 140.198,33.431 C139.762,33.395 139.473,33.759 139.108,33.937 C138.452,33.867 138.126,34.592 137.472,34.519 C136.236,34.885 135.075,35.503 133.876,35.905 C133.403,35.863 133.005,36.558 132.603,36.12 C132.347,36.488 131.911,36.558 131.512,36.521 C131.368,36.847 130.933,37.172 130.933,37.646 C131.223,37.897 131.259,38.301 131.66,38.446 C131.587,39.21 132.46,39.497 132.968,39.897 C133.111,40.078 133.438,39.937 133.545,40.224 C134.055,39.897 134.166,40.807 134.749,40.626 C134.963,40.592 135.04,41.098 135.255,40.77 C136.02,40.917 136.348,40.008 137.107,40.192 C137.581,39.536 137.907,40.407 138.344,40.516 C138.564,40.77 138.489,41.206 138.273,41.419 C138.415,42.297 137.693,42.986 137.801,43.825 C137.658,44.516 137.544,45.24 137.4,45.968 C137.184,46.473 137.472,47.13 137.184,47.673 C137.144,48.327 137.037,48.981 137.435,49.49 C137.51,50.217 138.344,50.435 138.709,50.984 C139.218,51.052 139.614,51.562 140.088,51.562 C140.634,51.998 141.359,51.632 141.979,51.851 C142.304,51.672 142.704,51.49 142.775,51.016 C142.413,50.076 143.397,49.419 143.106,48.367 C142.813,48.042 142.925,47.602 142.775,47.24 C142.961,46.548 143.138,45.749 142.925,45.022 C143.361,44.841 143.323,44.295 143.251,43.933 C143.504,43.785 143.323,43.64 143.361,43.461 C143.758,43.058 143.361,42.55 143.724,42.184 C143.943,41.968 143.905,41.532 143.758,41.319 C144.233,40.99 143.943,40.446 144.16,39.972 C144.449,39.247 144.704,38.446 144.596,37.612 C144.887,37.102 145.612,37.172 145.757,36.589 C146.486,36.488 147.357,36.303 147.722,35.536 C148.12,35.646 148.158,35.102 148.48,35.244 C149.176,35.646 149.283,34.628 149.863,34.666 C150.482,34.558 151.028,34.558 151.606,34.519 C152.006,34.12 152.66,34.415 153.062,34.011 C153.57,33.903 154.042,33.792 154.438,33.431 C155.241,33.722 155.171,32.668 155.964,33.032 C156.293,32.449 157.06,32.594 157.422,32.158 C158.076,32.05 158.4,31.286 159.129,31.323 C159.311,31.286 159.566,31.361 159.677,31.142 C159.749,30.706 160.219,30.742 160.546,30.668 C160.727,31.034 160.946,30.487 161.233,30.596 C161.715,30.198 162.438,30.085 162.982,29.869 C163.092,29.652 163.307,29.616 163.53,29.543 C163.579,29.543 163.632,29.543 163.643,29.571 C163.677,29.161 164.19,29.319 164.395,29.108 C165.382,29.399 166.253,28.596 167.231,28.455 C167.627,28.051 168.323,28.162 168.833,28.015 C169.301,27.473 170.105,27.614 170.721,27.401 C171.231,26.783 171.737,27.728 172.285,27.218 C172.832,27.325 173.078,26.493 173.595,26.818 C173.516,26.453 173.958,26.598 174.063,26.308 L174.173,26.382 C174.173,27.144 173.263,27.401 173.301,28.126 C173.263,28.491 172.719,28.708 172.972,29.072 C172.394,29.508 172.575,30.449 171.847,30.742 C171.809,30.816 171.922,30.851 171.922,30.885 C171.994,31.067 172.031,31.323 171.884,31.469 C171.809,32.085 171.627,32.702 171.591,33.285 C171.014,33.469 171.34,33.975 171.189,34.377 C170.868,35.067 170.94,35.905 170.611,36.589 C170.759,37.279 170.577,37.865 170.611,38.52 C170.974,38.805 170.792,39.463 171.378,39.608 C171.556,40.078 171.847,40.407 172.245,40.698 C172.792,40.879 173.078,41.606 173.772,41.353 C174.245,41.281 174.322,41.968 174.86,41.64 C175.408,41.64 175.952,41.897 176.458,41.75 C176.677,41.968 177.078,41.861 177.333,41.823 C177.807,41.24 178.752,41.419 178.97,40.666 C179.442,40.554 179.547,40.008 180.058,39.972 C180.058,39.865 180.058,39.754 179.982,39.682 C180.643,38.917 181.625,38.63 182.274,37.865 C182.565,37.172 183.001,36.735 183.441,36.08 C183.581,35.795 183.872,35.536 184.201,35.465 C184.31,35.281 184.782,35.212 184.488,34.885 C185,34.558 185.402,33.867 185.983,33.503 C186.051,33.032 186.308,32.594 186.599,32.232 C186.565,31.758 186.856,31.393 186.928,30.925 C186.78,30.015 187.511,28.742 186.489,28.015 C185.983,27.799 185.545,27.07 184.928,27.547 C184.822,27.144 185.294,26.672 185,26.166 C185.217,25.871 184.822,25.654 184.782,25.365 C185.33,25.18 185.874,25.292 186.416,25.254 C186.856,24.856 187.621,24.997 187.981,24.489 C188.599,24.638 189.037,23.983 189.651,24.347 C190.087,24.748 189.832,24.023 190.196,23.947 C190.74,24.419 191.507,23.983 192.049,23.947 C192.487,23.947 192.925,23.622 193.286,23.73 C193.758,23.147 194.336,23.764 194.886,23.403 C195.463,23.549 195.941,23.437 196.521,23.33 C196.772,23.18 196.993,23.005 197.318,23.037 C197.646,22.676 198.262,23.18 198.513,22.786 C198.885,22.746 199.427,22.786 199.828,22.897 C200.113,22.822 200.332,22.567 200.553,22.382 L200.661,22.529 C201.278,22.382 201.897,22.822 202.515,22.453 C202.7,21.911 203.276,22.276 203.676,22.162 C204.005,22.349 204.296,22.206 204.585,22.419 C204.62,22.965 204.915,23.622 204.551,24.089 C204.368,24.31 204.694,24.601 204.405,24.782 C204.517,25.292 204.185,25.73 204.185,26.272 C203.714,26.818 203.788,27.547 203.461,28.126 C203.168,29.072 202.845,29.977 202.3,30.816 C202.553,31.616 201.425,32.158 201.859,32.921 C201.061,33.212 200.879,34.05 200.626,34.666 C200.152,35.244 199.971,35.935 199.79,36.589 C199.357,37.031 199.427,37.646 199.242,38.154 C199.716,38.59 199.645,39.497 200.445,39.463 C201.355,40.224 202.372,40.592 203.423,40.951 C204.005,40.807 204.517,40.335 204.734,39.789 C205.02,39.497 205.206,38.99 205.423,38.59 C205.315,37.976 206.005,37.612 206.222,37.031 C206.441,36.589 207.17,36.409 206.949,35.829 C206.983,35.359 207.421,35.212 207.674,34.994 C207.712,34.486 208.184,34.377 208.256,33.903 C208.296,33.032 209.13,32.776 209.095,31.902 C209.601,31.543 209.997,30.632 210.909,30.925 C210.945,30.851 211.015,30.776 211.128,30.816 C211.636,30.885 211.636,31.433 211.601,31.902 C211.421,31.941 211.636,32.379 211.31,32.272 C211.344,32.812 211.059,33.212 211.089,33.722 C211.015,33.937 210.909,34.156 210.837,34.341 C210.473,35.318 209.927,36.558 209.821,37.719 C209.676,38.446 209.708,39.319 209.963,40.078 C210.473,40.479 210.438,41.353 211.164,41.57 C211.381,42.261 212.327,41.823 212.614,42.443 C213.237,42.626 213.923,42.407 214.361,41.968 C215.231,42.007 215.268,40.879 215.927,40.666 C215.995,39.865 216.903,39.937 217.27,39.355 C217.233,38.99 217.632,38.881 217.85,38.698 C218.429,38.772 218.542,38.08 218.938,37.865 C219.266,37.612 219.959,37.536 219.887,36.99 C220.54,36.809 219.812,36.232 220.285,36.047 C221.048,36.08 221.81,35.686 222.176,35.031 C222.321,35.031 222.5,34.994 222.646,35.067 C223.082,34.845 223.555,34.776 223.986,34.628 C224.138,34.228 224.716,34.192 225.008,33.867 C225.262,33.65 225.806,33.688 225.773,33.246 C226.024,33.069 226.281,32.921 226.605,32.995 C226.751,32.594 227.367,32.921 227.406,32.379 C228.239,32.196 228.896,31.505 229.801,31.393 C230.674,31.323 231.295,30.417 232.169,30.417 C232.019,29.76 232.785,30.124 233.04,29.832 C233,29.616 233,29.399 233.186,29.286 C234.019,28.997 234.856,28.816 235.58,28.341 C235.651,27.614 236.528,28.383 236.816,27.871 C237.325,27.941 237.289,27.473 237.761,27.473 C238.088,27.07 238.671,27.252 238.962,26.818 C239.58,26.923 239.944,26.272 240.267,25.838 L240.161,25.73 C240.379,25.618 240.454,25.292 240.705,25.365 C240.673,25.73 240.231,25.945 240.379,26.341 C239.795,26.893 239.647,27.76 239.287,28.491 C239.142,28.742 239.105,29.254 238.745,29.178 C238.887,29.471 238.745,29.76 238.636,30.015 C238.488,30.706 238.233,31.433 238.054,32.158 C237.872,32.272 238.161,32.449 237.946,32.558 C238.054,33.212 237.471,33.503 237.325,34.086 C237.544,34.628 236.96,35.281 237.178,35.935 C237.395,36.488 237.908,36.772 237.946,37.393 C238.124,37.574 238.307,37.976 238.636,37.897 C238.923,38.446 239.619,38.261 239.904,38.737 C240.598,38.917 241.217,39.463 241.978,39.319 L241.978,39.389 L242.303,39.425 C242.596,39.714 243.031,39.789 243.434,39.682 C243.938,39.355 244.558,39.682 245.065,39.247 C245.502,39.098 245.569,38.63 245.83,38.301 C246.916,38.046 246.916,36.772 247.794,36.264 C248.59,35.176 249.171,33.903 250.081,32.885 C250.008,32.272 250.767,32.05 251.023,31.616 C250.952,31.067 251.569,30.776 251.932,30.596 C252.187,31.323 252.043,32.085 252.077,32.849 C251.97,33.574 252.295,34.228 252.111,34.994 C252.474,35.176 251.97,35.61 252.372,35.72 C252.223,36.521 252.625,37.279 252.732,38.08 C253.02,38.556 253.02,39.136 253.24,39.608 C253.86,40.046 253.895,40.917 254.619,41.281 C254.441,42.078 255.493,41.75 255.786,42.297 C256.332,42.297 256.694,42.839 257.135,43.024 C257.675,43.391 258.219,42.66 258.765,43.024 C259.169,42.949 259.713,43.351 259.964,42.839 C259.892,42.261 260.547,42.588 260.765,42.184 C260.945,41.57 261.601,41.353 262.145,41.062 C262.179,40.407 263.016,40.666 263.051,40.046 C263.272,39.823 263.382,39.536 263.706,39.536 C264.254,38.772 265.196,39.062 265.78,38.373 C266.029,38.19 266.432,38.154 266.614,37.897 C267.449,37.102 268.645,36.99 269.413,35.977 C269.555,35.863 269.844,36.008 269.844,35.756 C270.541,35.72 270.463,35.031 271.015,34.776 C271.156,34.666 271.372,34.776 271.447,34.885 C271.557,34.885 271.557,34.704 271.591,34.592 C272.139,34.377 272.826,34.192 273.047,33.574 C273.3,33.431 273.373,33.867 273.551,33.759 C273.591,33.54 273.519,33.395 273.48,33.212 C273.551,33.136 273.591,33.032 273.698,33.069 C274.499,32.961 273.772,32.158 273.993,31.728 C274.315,31.65 274.572,31.835 274.865,31.728 C274.932,30.961 274.101,31.796 274.062,31.103 L274.062,31.103 Z" id="Fill-1" sketch:type="MSShapeGroup"></path>
            <path d="M82.822,41.098 C82.639,41.206 82.498,41.319 82.387,41.532 C82.713,42.184 81.695,42.225 81.914,42.839 C81.512,43.024 81.625,43.534 81.155,43.534 C80.823,44.152 80.282,44.516 80.168,45.203 C79.66,45.532 79.479,46.074 79.186,46.548 L79.186,46.73 C78.682,47.201 78.425,47.745 77.878,48.184 C77.878,48.692 77.264,48.799 77.152,49.199 C76.973,49.994 75.808,50.181 75.956,51.016 C75.52,51.124 75.083,51.49 74.972,51.891 C74.143,52.51 73.703,53.418 72.9,53.998 C72.541,54.399 72.138,54.759 71.739,55.052 C71.486,55.921 70.467,55.705 70.032,56.43 C69.959,56.502 69.851,56.502 69.778,56.43 C69.663,56.323 69.632,56.106 69.414,56.106 C69.597,55.884 69.959,55.775 70.215,55.815 C70.138,55.09 70.651,54.576 70.504,53.815 C70.575,53.56 70.941,53.672 70.941,53.379 C70.724,52.69 71.524,52.219 71.559,51.562 C71.882,51.124 71.882,50.546 72.322,50.257 C72.322,49.817 72.756,49.562 72.976,49.166 C73.849,47.855 75.047,46.839 76.064,45.532 C76.501,45.24 76.901,44.911 77.337,44.552 C77.665,44.584 77.629,44.223 77.81,44.038 C78.245,43.895 78.538,43.313 79.008,43.279 C79.296,42.735 79.952,42.735 80.168,42.184 C80.717,42.297 80.789,41.682 80.968,41.389 C81.839,41.532 82.421,40.77 82.931,40.263 C83.114,40.516 82.858,40.807 82.822,41.098 L82.822,41.098 Z M32.64,43.391 C32.312,43.676 32.135,44.152 31.696,44.223 C31.405,44.478 31.625,45.022 31.189,45.094 C30.676,45.566 30.568,46.369 29.918,46.622 C29.299,47.53 28.427,48.291 27.846,49.166 C27.049,49.309 27.665,50.399 26.753,50.257 C26.466,50.361 26.466,50.653 26.359,50.869 C26.032,51.271 25.266,51.201 25.231,51.815 C24.682,52.761 23.704,52.906 23.123,53.777 C22.612,53.927 22.355,54.465 21.957,54.795 C21.446,55.233 20.977,55.705 20.361,56.034 C20.178,56.759 19.303,56.538 19.052,57.265 C18.58,57.56 18.217,57.994 17.708,58.211 C17.527,58.646 16.98,58.43 16.87,58.935 C16.364,59.082 16.51,59.701 15.929,59.701 C15.275,59.881 15.127,60.719 14.437,60.753 C14.292,61.92 12.764,60.938 12.727,62.1 C12.368,62.428 11.817,62.645 11.382,62.902 C11.165,63.34 10.582,63.263 10.332,63.667 C10.074,63.767 9.966,63.516 9.822,63.34 C9.858,62.902 9.675,62.171 10.296,62.066 C10.438,61.701 9.639,61.191 10.296,61.01 C10.626,60.502 10.912,59.737 10.626,59.049 C11.165,58.793 10.438,58.287 10.875,57.922 C10.8,57.667 11.059,57.339 10.659,57.303 C10.693,56.978 10.474,56.359 10.983,56.213 C11.24,55.996 11.24,55.486 11.165,55.124 C10.838,54.795 11.89,54.066 10.947,53.998 C10.983,53.741 11.422,53.777 11.534,53.49 C11.534,52.906 10.947,52.51 11.165,51.891 C11.059,51.163 11.71,51.672 11.817,51.092 C12.004,50.327 11.274,49.783 11.602,49.126 C11.676,48.111 11.89,47.164 12.004,46.223 C12.327,45.712 12.113,45.166 12.368,44.624 C12.113,43.461 13.199,42.55 12.584,41.389 C12.803,41.062 12.984,40.84 12.948,40.407 C13.128,40.008 12.984,39.497 13.275,39.172 L13.525,37.897 C14.109,37.937 13.818,37.244 13.965,36.921 C13.6,36.735 13.713,36.12 13.748,35.829 C14.002,35.576 13.818,35.212 13.748,34.957 L13.713,34.885 C14.401,34.558 13.818,33.792 14.326,33.469 L14.401,33.54 C14.618,33.431 14.541,33.212 14.618,33.032 C14.474,32.995 14.292,32.921 14.326,32.776 C14.254,32.411 14.835,32.158 14.437,31.835 C14.541,31.835 14.764,31.758 14.764,31.574 C14.728,31.505 14.8,31.505 14.835,31.469 C14.911,31.505 14.874,31.616 14.979,31.688 C15.127,31.25 15.2,30.668 15.055,30.268 C15.02,29.977 15.67,29.832 15.307,29.431 C15.2,29.286 15.2,28.997 15.307,28.853 C15.635,28.781 15.38,28.413 15.493,28.27 C16.251,27.614 15.275,26.708 15.85,25.945 C15.781,25.73 15.745,25.548 15.893,25.365 C16.107,25.292 16.33,25.511 16.51,25.292 C16.401,24.929 16.725,24.528 16.364,24.274 C16.545,23.549 16.472,22.714 16.946,22.162 C17.015,21.55 16.837,20.823 17.417,20.385 C17.45,19.983 17.236,19.294 17.853,19.152 C18.326,19.152 17.817,18.788 17.925,18.567 C18.179,18.35 18.031,17.878 18.362,17.806 C18.653,17.152 18.87,16.461 19.194,15.808 C19.456,15.007 20.254,14.573 20.539,13.81 C20.869,13.407 21.378,13.445 21.778,13.191 C22.179,13.228 22.395,12.752 22.83,12.788 C23.048,12.356 23.449,12.573 23.704,12.099 C23.956,12.427 24.103,11.846 24.391,12.14 C24.865,11.812 25.517,12.284 25.923,11.846 C26.682,12.065 27.481,12.209 28.282,12.39 C28.824,11.665 29.408,12.539 29.952,12.609 C30.171,13.117 30.568,12.609 30.9,12.716 C31.26,13.517 32.135,13.047 32.535,13.81 C33.478,13.591 33.878,14.684 34.639,14.973 C35.256,15.334 35.475,16.208 36.204,16.316 C36.417,16.822 36.566,17.444 37.076,17.734 C37.44,18.716 38.238,19.549 38.347,20.64 C39.11,22.24 39.183,24.089 39.548,25.871 C39.328,26.672 40.018,27.688 39.474,28.523 C39.438,30.085 38.889,31.393 38.599,32.812 C38.238,33.285 38.383,34.011 37.873,34.415 C37.548,34.957 37.581,35.61 37.112,36.08 C37.29,36.662 36.604,36.735 36.604,37.244 C36.204,38.046 35.438,38.662 35.364,39.574 C34.639,40.115 34.458,41.134 33.73,41.715 C33.657,42.482 32.64,42.626 32.64,43.391 L32.64,43.391 Z M126.063,41.389 C125.844,40.84 126.134,40.263 125.991,39.682 C125.519,39.172 126.134,38.481 125.844,38.008 C125.732,37.393 125.556,36.772 125.334,36.192 C125.047,35.977 124.755,35.686 124.391,35.646 C123.849,35.031 123.266,35.686 122.574,35.429 C121.631,34.957 120.793,35.536 119.814,35.686 C119.739,36.521 119.193,37.102 118.651,37.646 C118.396,38.407 117.851,38.698 117.415,39.425 C117.271,40.152 116.469,40.369 116.397,41.134 C116.033,41.715 115.38,41.897 115.09,42.514 C114.797,43.058 114.616,43.64 114.146,44.038 C113.525,44.552 112.98,45.277 112.729,46.001 C112.292,46.512 111.894,46.983 111.271,47.277 C111.199,46.473 111.021,45.349 111.457,44.552 C112.257,43.933 111.199,43.207 111.855,42.514 C112.292,42.078 112.616,41.532 112.801,40.917 C113.49,39.714 113.2,38.446 112.909,37.172 C113.095,36.99 113.095,36.735 113.052,36.521 C113.563,36.192 113.019,35.72 113.2,35.318 C113.2,34.628 112.474,34.086 111.894,33.867 C111.385,33.722 110.949,33.32 110.33,33.431 C110.075,33.069 109.675,33.032 109.313,33.212 C109.056,32.849 108.62,33.102 108.258,33.032 C107.861,33.246 107.384,33.32 107.277,33.867 C107.24,35.318 107.024,36.735 106.623,38.046 C106.114,39.098 105.28,38.046 104.516,38.261 C103.825,38.481 103.027,38.301 102.334,38.698 C101.827,38.955 101.1,38.737 100.592,39.025 C99.899,39.136 99.464,39.608 98.811,39.789 C98.266,40.698 97.356,40.224 96.811,41.098 C96.594,42.007 95.393,41.57 95.031,42.482 C94.632,42.735 94.52,43.058 94.085,43.241 C94.05,43.895 93.251,43.859 92.924,44.257 C92.486,44.584 92.162,44.985 91.799,45.349 C91.362,45.315 91.433,45.897 91.035,45.897 C90.707,46.152 90.67,46.654 90.27,46.767 C89.835,46.983 89.476,47.712 88.999,47.386 C88.961,46.369 88.746,45.277 88.928,44.257 C88.675,43.492 89.438,42.007 88.166,41.935 C87.873,41.791 88.201,41.606 88.089,41.389 C87.873,41.025 87.4,41.062 87.072,40.879 C86.746,40.152 85.914,40.335 85.4,39.865 C84.82,39.497 85.691,39.172 85.623,38.737 C86.058,38.226 86.092,37.351 85.729,36.735 C85.365,36.735 85.291,36.337 85.186,36.12 C84.529,35.935 83.984,35.646 83.476,35.212 C83.22,35.212 83.003,35.138 82.786,34.994 C82.639,34.592 82.238,34.845 81.949,34.628 C81.189,34.301 80.464,34.919 79.77,34.592 C79.408,35.067 78.862,34.666 78.425,34.885 C78.21,34.449 77.845,34.628 77.444,34.666 C77.116,34.994 76.829,34.845 76.393,34.813 C75.228,35.318 73.886,34.994 72.756,35.61 C71.524,35.795 70.467,36.409 69.195,36.488 C68.872,37.172 68.071,36.589 67.564,36.953 C67.162,37.646 66.29,37.031 65.816,37.646 C65.163,37.612 64.688,38.046 64.073,38.046 C63.453,38.698 62.545,38.805 61.711,38.772 C60.982,39.682 59.641,38.917 58.951,39.972 C58.477,39.648 58.44,40.263 58.041,40.335 C57.678,40.192 57.241,40.446 56.95,40.626 C56.808,40.666 56.547,40.698 56.442,40.554 C56.004,40.77 55.461,40.807 55.172,41.206 C54.989,41.353 54.882,41.172 54.805,41.062 C54.591,41.134 54.482,41.281 54.333,41.496 C53.497,41.319 53.172,42.297 52.338,42.261 C52.044,42.805 51.392,42.626 50.989,42.949 C50.957,43.207 50.736,43.391 50.445,43.313 C50.047,44.005 49.14,43.566 48.777,44.223 C48.448,44.367 48.121,44.367 47.794,44.223 C47.317,44.73 46.378,44.624 45.941,45.277 C45.868,45.203 45.794,45.203 45.726,45.132 C45.434,45.385 44.776,45.315 44.924,45.897 C44.522,46.001 44.16,46.001 43.688,46.074 C43.177,46.223 42.85,46.983 42.271,46.803 C42.049,47.311 41.543,47.096 41.181,47.201 C40.563,48.184 39.505,48.402 38.635,48.909 C38.457,48.944 38.056,48.799 37.912,49.018 C37.256,48.767 36.932,49.49 36.38,49.49 C36.349,49.924 35.985,49.562 35.802,49.855 C35.659,49.889 35.546,49.817 35.4,49.783 C35.222,50.361 34.496,49.961 34.385,50.582 C34.06,50.476 33.73,51.235 33.623,50.653 C33.657,50.435 33.845,50.181 34.095,50.257 C34.385,49.783 35.077,49.817 35.188,49.237 C35.694,49.237 35.546,48.584 35.728,48.257 C35.877,48.042 36.349,47.965 36.165,47.602 C36.417,47.64 36.711,47.494 36.854,47.277 C36.531,46.001 38.635,45.897 38.528,44.803 C39.291,44.658 39.07,43.785 39.505,43.351 C40.308,43.351 40.089,42.482 40.38,42.007 C40.707,41.791 40.598,41.281 41.035,41.206 C40.928,40.592 41.942,40.554 41.687,39.865 C41.942,39.355 42.013,38.662 42.676,38.373 C42.45,37.612 43.143,37.102 43.326,36.409 C44.052,35.829 43.832,34.776 44.306,34.086 C44.417,33.867 44.488,33.469 44.268,33.285 C44.16,32.594 44.96,32.196 44.742,31.393 C45.179,30.417 44.341,29.543 44.632,28.67 C45.467,28.383 44.488,27.58 44.559,27.035 C44.597,26.923 44.742,26.857 44.85,26.818 C44.707,25.871 44.742,24.891 44.306,23.983 C43.723,23.037 43.357,21.949 43.108,20.858 C42.817,20.603 42.561,20.204 42.236,20.131 C42.236,19.953 42.45,19.804 42.488,19.694 C42.124,19.443 42.561,19.043 42.09,18.824 C41.872,17.987 41.142,17.444 40.78,16.676 C40.492,15.842 39.149,15.991 39.398,15.007 C38.528,14.099 37.581,12.938 36.496,12.316 C36.059,12.316 35.911,11.812 35.475,11.812 C35.364,10.83 34.28,11.154 33.805,10.539 C33.478,10.103 32.859,10.103 32.458,9.738 C31.696,9.778 31.37,8.649 30.536,9.013 C30.242,8.722 29.699,8.864 29.482,8.433 C28.719,8.864 28.318,7.958 27.554,8.105 C27.154,7.81 26.535,7.918 26.032,7.81 C25.882,7.597 25.63,7.414 25.341,7.557 C24.607,7.194 23.85,7.557 23.123,7.376 C22.686,7.557 22.14,7.447 21.778,7.272 C21.705,7.089 21.778,6.832 21.957,6.689 C22.395,6.504 22.284,5.96 22.721,5.707 C22.906,4.944 23.558,4.51 23.774,3.816 C24.214,3.343 23.664,2.872 23.595,2.438 C23.376,2.143 23.084,1.78 22.754,1.819 C22.578,1.745 22.395,1.561 22.321,1.383 C21.523,0.803 20.648,0.512 19.668,0.402 C19.487,0.512 19.38,0.692 19.161,0.729 C18.653,1.455 17.708,2 17.636,2.942 C16.908,4.144 16.18,5.413 15.929,6.87 C15.343,7.521 15.455,8.469 15.127,9.231 C14.618,9.995 14.728,11.009 14.22,11.812 C14.148,12.828 13.566,13.627 13.055,14.462 C12.948,15.334 12.368,15.991 12.182,16.822 C11.89,17.734 11.492,18.607 11.349,19.585 C10.693,20.095 11.382,21.077 10.626,21.509 C10.474,23.005 9.784,24.274 9.858,25.871 C9.24,26.561 9.315,27.58 9.13,28.413 C9.13,28.563 8.764,28.708 9.025,28.891 C8.915,29.471 8.731,30.05 8.731,30.632 C8.186,31.176 8.55,31.902 8.26,32.558 C7.682,32.921 8.589,33.136 8.295,33.54 C7.606,33.759 8.04,34.628 7.572,35.031 C7.714,35.686 7.021,36.264 7.572,36.847 C7.714,37.172 7.315,37.172 7.171,37.351 C7.021,37.536 7.206,37.719 7.206,37.897 C6.879,38.373 6.771,39.025 6.771,39.682 C6.621,40.115 6.479,40.592 6.771,40.99 C6.113,41.319 6.588,42.184 6.188,42.588 C6.151,43.136 5.97,43.534 5.937,44.152 C5.825,44.911 5.171,45.602 5.536,46.403 C5.136,47.164 4.844,48.144 5.097,49.018 C4.521,49.528 5.028,50.506 4.662,51.124 C4.626,51.271 4.405,51.417 4.521,51.562 C4.737,51.891 4.298,52.179 4.192,52.472 C4.192,53.341 3.864,54.179 3.971,55.052 C3.679,55.269 3.83,55.56 3.864,55.884 C3.283,56.685 3.459,57.847 3.354,58.793 C3.428,59.52 2.845,60.066 3.21,60.753 C3.101,60.866 2.991,60.938 2.879,61.01 C2.991,61.663 2.626,62.245 2.774,62.902 C2.738,64.169 2.046,65.44 2.411,66.785 C2.011,67.842 2.446,68.968 2.189,70.091 L1.576,70.786 C0.952,71.002 0.445,71.548 0.083,72.093 C-0.132,72.492 0.119,72.928 0.302,73.251 C0.919,74.051 1.469,74.96 2.486,75.109 C2.918,75.396 3.39,75.687 3.786,75.872 C4.119,75.764 4.371,75.98 4.626,75.834 C4.662,75.29 5.388,75.687 5.643,75.328 C6.224,75.039 6.916,75.396 7.422,74.854 C7.749,74.306 8.115,73.693 8.26,73.035 C8.699,72.605 9.315,72.203 9.822,71.802 C9.822,71.113 10.693,71.508 10.693,70.821 C11.641,70.277 12.402,69.401 13.383,68.86 C13.493,68.243 14.292,68.384 14.437,67.876 C15.127,67.586 15.527,67.006 16.294,66.863 C16.579,66.241 17.159,66.099 17.708,65.918 C18.031,65.767 18.254,65.59 18.287,65.189 C18.795,64.755 19.668,64.755 19.996,64.027 C20.577,63.552 21.597,63.807 21.883,62.936 C22.686,63.119 22.795,62.066 23.558,62.137 C24.064,61.701 24.537,61.446 25.046,60.972 C25.63,61.049 26.098,60.719 26.535,60.283 C27.009,60.102 27.301,59.701 27.881,59.665 C28.427,59.628 28.352,59.014 28.824,58.864 C29.259,58.793 29.551,58.357 30.061,58.319 C30.277,58.287 30.319,57.775 30.607,57.954 C30.934,57.888 31.335,57.922 31.405,57.52 C31.696,57.45 32.063,57.379 32.312,57.086 C32.603,56.43 33.478,56.791 33.878,56.323 C34.529,56.213 35.077,55.851 35.622,55.56 C36.239,55.233 36.819,54.867 37.472,54.576 C37.511,54.399 37.766,54.145 37.946,54.066 C38.347,54.145 38.383,53.672 38.673,53.741 C39.037,53.632 39.655,53.777 39.873,53.341 C40.671,53.56 40.746,52.616 41.509,52.761 C41.651,52.433 42.157,52.58 42.236,52.179 C42.379,52.11 42.488,52.251 42.598,52.251 C42.889,52.179 43.108,51.961 43.253,51.741 C43.542,51.851 43.688,51.417 43.902,51.672 C44.522,51.124 45.396,51.201 45.977,50.582 C46.378,50.291 46.995,50.361 47.357,49.855 C47.794,49.924 48.085,49.382 48.557,49.382 C49.14,49.454 49.176,48.439 49.864,48.909 C50.082,48.873 50.194,48.692 50.194,48.474 C50.957,48.51 51.281,47.673 52.081,47.855 C52.373,47.783 52.845,47.745 52.914,47.311 C53.717,47.53 54.046,46.767 54.771,46.803 C55.317,46.114 56.369,46.369 56.841,45.64 L56.914,45.749 L57.098,45.494 C57.462,45.675 57.57,45.132 57.937,45.349 C58.259,45.203 58.731,45.166 58.951,44.879 C59.203,44.803 59.458,44.478 59.712,44.658 C59.967,44.295 60.439,44.367 60.622,43.968 C61.129,44.478 61.418,43.566 61.967,43.933 C62.369,43.933 62.654,43.64 63.02,43.714 C63.526,43.024 64.363,43.136 65.019,42.735 C65.816,42.407 66.689,42.514 67.452,42.297 C67.921,41.861 68.616,41.897 69.159,41.823 C69.523,41.532 69.814,41.419 70.25,41.353 C70.398,40.666 71.265,41.062 71.702,40.917 C71.959,41.419 71.375,41.606 71.123,42.007 C70.358,42.482 69.703,43.241 69.195,44.005 C68.472,44.441 68.288,45.132 67.779,45.712 C67.599,46.369 66.98,46.803 66.723,47.419 C66.29,48.439 65.67,49.382 65.421,50.476 C65.127,51.124 64.835,51.851 64.946,52.542 C64.436,53.418 64.582,54.465 64.62,55.45 C64.835,55.851 64.653,56.43 65.054,56.759 C65.309,57.408 65.562,58.173 66.222,58.536 C66.437,59.049 67.127,59.337 67.522,59.845 C68.647,60.102 69.45,61.369 70.724,61.153 C70.724,61.049 70.758,61.01 70.795,60.938 C71.157,60.719 71.559,61.049 71.923,61.191 C72.322,60.681 72.976,61.084 73.483,60.83 C73.777,60.719 73.811,60.426 73.992,60.177 L74.392,60.322 C74.645,60.394 74.577,60.102 74.72,60.03 C75.155,60.03 75.409,59.52 75.844,59.446 C75.99,59.121 76.283,59.121 76.462,58.829 C76.901,58.829 76.678,58.028 77.264,58.211 L78.572,56.978 C78.862,56.719 78.933,56.323 79.335,56.177 C79.447,55.45 80.569,55.375 80.531,54.465 C80.789,54.106 81.078,53.56 81.585,53.49 C82.024,52.761 82.858,52.146 83.042,51.309 C83.147,51.124 83.512,51.163 83.476,50.869 C83.619,50.435 84.422,50.14 84.021,49.709 C84.058,49.6 84.205,49.382 84.383,49.454 C85.479,50.799 86.929,51.49 88.166,52.542 C88.853,52.616 89.582,53.161 90.307,52.941 C90.599,53.379 91.144,53.161 91.544,53.084 C91.799,52.542 92.527,52.761 92.924,52.397 C93.035,52.179 93.141,51.961 93.397,51.998 C94.417,51.271 95.031,50.327 95.938,49.636 C96.051,48.873 97.029,48.837 97.247,48.291 C97.832,48.042 98.121,47.64 98.447,47.096 C98.774,46.946 98.992,46.473 99.318,46.584 C100.226,45.315 101.827,44.803 103.172,44.188 C102.953,43.096 104.115,44.005 104.408,43.351 C104.625,43.241 104.661,43.566 104.843,43.566 L105.133,43.279 C105.28,43.241 105.352,43.313 105.423,43.391 C105.388,45.166 105.498,47.13 105.715,48.909 C106.004,49.271 105.86,49.817 106.004,50.257 C106.44,50.614 106.223,51.271 106.698,51.632 C106.769,52.397 107.458,52.761 108.004,53.199 C109.056,53.235 109.566,54.504 110.73,54.434 C110.8,54.829 111.237,54.542 111.457,54.687 C111.894,54.249 112.581,54.504 113.019,54.066 C113.49,53.341 114.579,53.418 114.797,52.472 C115.346,52.472 115.67,51.891 116.033,51.6 C116.181,51.384 115.89,51.124 116.217,50.943 C116.653,50.984 116.504,50.361 116.943,50.361 C117.09,49.994 117.415,49.674 117.598,49.382 C117.598,48.727 118.396,48.367 118.833,47.927 C119.378,47.673 119.122,46.767 119.739,46.584 C119.776,46.654 119.89,46.694 119.89,46.767 C119.592,47.13 119.85,47.64 119.957,48.076 C119.521,49.674 119.559,51.562 119.449,53.161 C119.193,53.672 119.378,54.36 119.122,54.867 C119.193,55.486 118.833,55.996 118.939,56.608 C118.687,57.231 118.905,57.888 118.651,58.504 C118.542,58.904 118.722,59.303 118.472,59.665 C118.615,60.102 118.213,60.426 118.361,60.938 C117.851,61.301 118.286,61.879 117.924,62.279 C118.25,63.01 117.598,63.738 117.851,64.46 C117.488,64.793 117.886,65.189 117.705,65.551 C117.924,65.842 117.524,66.131 117.488,66.424 C117.271,66.934 117.341,67.514 117.09,67.988 C116.869,68.968 117.012,69.95 116.469,70.786 L116.762,71.476 C116.688,71.655 116.504,71.767 116.504,71.946 C116.324,72.711 115.817,73.432 116.069,74.306 C115.634,74.746 116.069,75.362 115.67,75.799 C115.561,76.125 115.67,76.416 115.67,76.713 C114.727,77.143 115.744,78.121 114.98,78.671 C115.27,78.925 114.797,79.141 115.09,79.36 C114.289,79.793 115.052,80.74 114.359,81.213 C114.512,82.266 113.852,83.208 113.782,84.3 C113.235,84.957 113.417,85.934 112.945,86.629 C112.98,86.774 113.052,86.953 113.274,86.88 C114.11,87.573 112.729,86.991 112.729,87.718 C112.545,87.97 112.545,88.189 112.729,88.447 C112.109,88.848 112.073,89.572 111.963,90.223 C111.6,91.238 111.199,92.219 110.8,93.239 C110.186,93.931 110.8,95.164 109.892,95.641 C109.748,96.365 109.275,96.982 109.204,97.744 C108.62,98.145 108.692,98.909 108.368,99.417 C108.258,99.708 107.896,100.032 108.185,100.29 C107.966,100.689 107.532,100.979 107.568,101.491 C107.096,101.96 106.948,102.685 106.805,103.341 C105.968,103.776 106.623,104.76 105.933,105.304 C105.209,105.45 105.388,106.324 104.916,106.758 C104.882,107.123 104.334,107.81 105.06,107.883 C104.989,107.958 104.953,107.958 104.882,107.991 C104.882,108.063 104.843,108.209 104.916,108.282 C105.316,108.575 105.316,109.449 106.04,109.192 C106.114,109.738 106.698,109.41 107.024,109.521 C107.348,109.92 107.747,109.449 108.185,109.627 C108.368,109.702 108.295,109.88 108.405,109.989 C108.732,110.067 108.84,109.702 109.056,109.557 C108.95,109.05 109.42,108.902 109.493,108.504 C109.748,108.25 110,107.92 110.367,107.705 C110.221,107.123 110.949,106.866 110.765,106.249 C111.42,105.846 111.092,104.866 111.928,104.795 C112.001,104.394 111.237,103.962 111.894,103.669 C112.327,103.341 111.567,102.977 112.037,102.685 C112.292,102.469 112.508,102.76 112.765,102.798 C113.165,102.655 112.872,102.146 113.019,101.888 C113.525,101.527 113.052,100.942 113.382,100.509 C114.182,100.509 113.709,99.487 114.146,99.166 C113.889,98.473 114.98,98.654 114.797,97.999 C114.289,97.569 115.27,97.453 114.943,96.949 C115.525,96.873 114.98,96.183 115.525,96.114 C115.997,95.856 115.525,95.386 115.416,95.055 C115.525,94.694 116.033,94.909 116.181,94.549 C116.254,94.442 116.181,94.329 116.069,94.258 C115.817,94.037 115.817,94.403 115.561,94.367 C115.38,94.292 115.487,94.113 115.453,93.965 C115.561,93.605 115.96,93.784 116.181,93.641 C116.469,93.239 116.653,92.877 116.653,92.333 C117.055,92.007 116.541,91.39 117.09,91.238 C117.197,90.913 117.415,90.662 117.304,90.223 C117.378,90.079 117.524,90.079 117.635,90.153 L117.705,89.934 C117.635,89.461 117.09,89.607 116.869,89.314 C116.978,89.17 117.125,89.063 117.341,89.099 C117.924,89.133 117.341,88.517 117.924,88.517 C117.488,87.645 118.758,87.428 118.433,86.557 C118.687,86.334 118.286,85.9 118.722,85.754 C118.25,85.317 119.087,85.43 119.087,85.101 C119.015,84.886 119.16,84.3 118.722,84.266 C118.615,83.79 119.23,83.9 119.485,83.685 C119.485,83.577 119.521,83.428 119.449,83.356 C119.739,82.671 118.939,82.812 118.794,82.302 C119.087,81.866 119.342,81.543 119.921,81.543 C120.1,81.322 119.706,81.248 119.706,81.065 C119.559,80.778 119.993,80.886 120.1,80.74 C120.032,80.414 120.466,80.085 120.032,79.872 C119.89,79.581 120.142,79.432 120.357,79.323 C120.176,78.962 119.776,79.323 119.559,79.033 C119.485,78.779 119.706,78.524 119.739,78.272 C119.921,78.272 119.921,78.489 120.032,78.563 C120.214,78.599 120.249,78.45 120.357,78.38 C121.014,78.38 120.357,77.617 120.902,77.362 C120.974,77.105 121.193,76.742 120.902,76.527 C120.502,76.527 120.065,76.344 119.814,76.089 C120.1,75.619 120.687,75.908 121.05,75.872 C121.157,75.687 121.303,75.507 121.193,75.29 C121.557,74.96 120.756,75 121.087,74.639 C121.885,74.418 121.231,73.766 121.667,73.4 C121.411,73.361 121.157,73.147 121.05,72.928 C121.157,72.418 121.557,72.747 121.846,72.711 C122.324,72.02 121.087,72.057 121.264,71.476 C121.45,71.293 121.738,71.293 121.957,71.436 C122.21,71.151 122.356,70.751 122.21,70.348 C122.431,69.912 122.324,69.514 122.502,69.042 C122.646,68.679 122.502,68.275 122.794,68.022 C122.758,67.655 122.865,67.113 122.539,66.828 C122.901,66.319 123.266,65.621 123.155,64.934 C123.773,64.354 123.155,63.552 123.667,62.902 C123.119,62.39 124.245,62.355 123.918,61.848 C123.81,60.938 124.502,60.177 124.175,59.227 C124.462,59.155 124.209,58.755 124.354,58.536 C123.918,58.141 124.683,57.888 124.175,57.52 C124.283,57.408 124.425,57.339 124.539,57.265 C124.574,57.086 124.502,56.942 124.354,56.831 C124.319,56.759 124.283,56.578 124.391,56.538 C125.153,56.538 124.574,55.56 124.934,55.124 C124.539,54.504 125.41,54.179 124.934,53.6 C125.446,53.054 124.827,52.291 125.262,51.815 C125.262,51.092 125.481,50.399 125.446,49.709 C125.732,49.271 125.153,48.692 125.663,48.291 C125.626,47.494 125.556,46.548 125.884,45.749 C125.698,45.459 125.991,44.948 125.777,44.584 C125.808,44.295 126.026,43.933 125.884,43.714 C125.777,43.423 125.732,43.136 126.026,42.913 C125.844,42.443 125.991,41.861 126.063,41.389 L126.063,41.389 Z" id="Fill-3" sketch:type="MSShapeGroup"></path>
        </g>
    </g>
</svg>